<svg xmlns="http://www.w3.org/2000/svg" viewBox="4.718 3.834 25.512 25.54" xmlns:bx="https://boxy-svg.com">
  <defs>
    <bx:export>
      <bx:file format="svg"></bx:file>
    </bx:export>
  </defs>
  <path d="M 29.754 4.333 C 29.542 4.121 29.609 4.184 29.362 3.937 L 5.864 27.434 L 5.864 14.09 C 5.562 14.09 5.63 14.089 5.33 14.089 C 5.03 14.089 5.092 14.09 4.779 14.09 L 4.779 28.744 C 4.779 28.815 4.794 28.885 4.821 28.952 C 4.876 29.085 4.981 29.19 5.114 29.245 C 5.181 29.272 5.251 29.287 5.322 29.287 L 20.017 29.288 C 20.017 28.791 20.02 28.967 20.016 28.755 C 20.012 28.543 20.016 28.578 20.016 28.203 L 6.632 28.202 L 30.129 4.704 C 29.822 4.397 29.966 4.545 29.754 4.333 Z" style="stroke-linecap: square; stroke-miterlimit: 1; fill: #ffffff; transform-box: fill-box; transform-origin: 50% 50%;" transform="matrix(-1, 0, 0, -1, 0.000003, 0.000003)"></path>
</svg>